<svg width="57" height="56" xmlns="http://www.w3.org/2000/svg" xmlns:xlink="http://www.w3.org/1999/xlink" xml:space="preserve" overflow="hidden"><defs><clipPath id="clip0"><rect x="194" y="884" width="57" height="56"/></clipPath></defs><g clip-path="url(#clip0)" transform="translate(-194 -884)"><path d="M16.9167 15.1667C17.9083 15.1667 18.6667 14.4083 18.6667 13.4167L18.6667 9.91667C18.6667 8.925 17.9083 8.16667 16.9167 8.16667 15.925 8.16667 15.1667 8.925 15.1667 9.91667L15.1667 13.4167C15.1667 14.4083 15.925 15.1667 16.9167 15.1667Z" transform="matrix(1.01786 0 0 1 194 884)"/><path d="M11.6667 25.6667 44.3333 25.6667 44.3333 44.3333 11.6667 44.3333 11.6667 25.6667ZM8.16667 47.8333 47.8333 47.8333 47.8333 22.1667 8.16667 22.1667 8.16667 47.8333Z" transform="matrix(1.01786 0 0 1 194 884)"/><path d="M39.0833 15.1667C40.075 15.1667 40.8333 14.4083 40.8333 13.4167L40.8333 9.91667C40.8333 8.925 40.075 8.16667 39.0833 8.16667 38.0917 8.16667 37.3333 8.925 37.3333 9.91667L37.3333 13.4167C37.3333 14.4083 38.0917 15.1667 39.0833 15.1667Z" transform="matrix(1.01786 0 0 1 194 884)"/><path d="M43.1667 11.6667 43.1667 13.4167C43.1667 15.6917 41.3583 17.5 39.0833 17.5 36.8083 17.5 35 15.6917 35 13.4167L35 11.6667 21 11.6667 21 13.4167C21 15.6917 19.1917 17.5 16.9167 17.5 14.6417 17.5 12.8333 15.6917 12.8333 13.4167L12.8333 11.6667 8.16667 11.6667 8.16667 19.8333 47.8333 19.8333 47.8333 11.6667 43.1667 11.6667Z" transform="matrix(1.01786 0 0 1 194 884)"/></g></svg>