<svg width="57" height="56" xmlns="http://www.w3.org/2000/svg" xmlns:xlink="http://www.w3.org/1999/xlink" xml:space="preserve" overflow="hidden"><defs><clipPath id="clip0"><rect x="74" y="884" width="57" height="56"/></clipPath></defs><g clip-path="url(#clip0)" transform="translate(-74 -884)"><path d="M10.15 9.91667C9.0482 9.92308 8.16025 10.8215 8.16667 11.9233 8.16667 11.9233 8.16667 11.9233 8.16667 11.9233L8.16667 36.0383 8.16667 36.0383C8.16019 37.1401 9.04814 38.0385 10.1499 38.045 10.1499 38.045 10.15 38.045 10.15 38.045L16.1 38.045 16.1 46.0833 24.0333 38.045 45.85 38.045C46.9518 38.0386 47.8397 37.1402 47.8333 36.0384 47.8333 36.0384 47.8333 36.0383 47.8333 36.0383L47.8333 11.9233 47.8333 11.9233C47.8398 10.8215 46.9519 9.92314 45.8501 9.91667 45.8501 9.91667 45.85 9.91667 45.85 9.91667ZM34.4167 23.9167C34.4167 22.3059 35.7225 21 37.3333 21 38.9441 21 40.25 22.3059 40.25 23.9167 40.25 25.5275 38.9441 26.8333 37.3333 26.8333 35.7225 26.8333 34.4167 25.5275 34.4167 23.9167ZM25.0833 23.9167C25.0833 22.3059 26.3892 21 28 21 29.6108 21 30.9167 22.3059 30.9167 23.9167 30.9167 25.5275 29.6108 26.8333 28 26.8333 26.3892 26.8333 25.0833 25.5275 25.0833 23.9167ZM15.75 23.9167C15.75 22.3059 17.0558 21 18.6667 21 20.2775 21 21.5833 22.3059 21.5833 23.9167 21.5833 25.5275 20.2775 26.8333 18.6667 26.8333 17.0558 26.8333 15.75 25.5275 15.75 23.9167Z" transform="matrix(1.01786 0 0 1 74 884)"/></g></svg>