<svg width="57" height="56" xmlns="http://www.w3.org/2000/svg" xmlns:xlink="http://www.w3.org/1999/xlink" xml:space="preserve" overflow="hidden"><defs><clipPath id="clip0"><rect x="315" y="884" width="57" height="56"/></clipPath></defs><g clip-path="url(#clip0)" transform="translate(-315 -884)"><path d="M40.7342 18.5675 26.1508 33.1508C25.7129 33.5883 25.119 33.8338 24.5 33.8333 24.3026 33.8294 24.1065 33.8 23.9167 33.7458L3.15583 54.4892C2.66643 54.9083 1.92994 54.8513 1.51083 54.3619 1.13679 53.9251 1.13679 53.281 1.51083 52.8442L22.2542 32.0833C22.0362 31.2842 22.2582 30.4295 22.8375 29.8375L37.4208 15.2542C38.3326 14.3424 39.8107 14.3424 40.7225 15.2542 41.6343 16.1659 41.6343 17.6441 40.7225 18.5558Z" transform="matrix(1.01786 0 0 1 315 884)"/><path d="M40.25 26.8333C39.6056 26.8333 39.0833 27.3556 39.0833 28L39.0833 36.1667C39.0833 36.811 39.6056 37.3333 40.25 37.3333 40.8943 37.3333 41.4167 36.811 41.4167 36.1667L41.4167 28C41.4167 27.3556 40.8943 26.8333 40.25 26.8333Z" transform="matrix(1.01786 0 0 1 315 884)"/><path d="M45.5 16.9167 53.6667 16.9167C54.311 16.9167 54.8333 16.3944 54.8333 15.75 54.8333 15.1056 54.311 14.5833 53.6667 14.5833L45.5 14.5833C44.8556 14.5833 44.3333 15.1056 44.3333 15.75 44.3333 16.3944 44.8556 16.9167 45.5 16.9167Z" transform="matrix(1.01786 0 0 1 315 884)"/><path d="M16.3333 26.8333C16.4873 26.833 16.6397 26.8034 16.7825 26.7458L27.2825 22.3708C27.8785 22.1227 28.1606 21.4385 27.9125 20.8425 27.6644 20.2465 26.9802 19.9644 26.3842 20.2125L15.8842 24.5875C15.2882 24.8323 15.0034 25.514 15.2482 26.1099 15.4288 26.5496 15.858 26.8357 16.3333 26.8333Z" transform="matrix(1.01786 0 0 1 315 884)"/><path d="M25.6667 16.9167 32.0833 16.9167C32.7277 16.9167 33.25 16.3944 33.25 15.75 33.25 15.1056 32.7277 14.5833 32.0833 14.5833L25.6667 14.5833C25.0223 14.5833 24.5 15.1056 24.5 15.75 24.5 16.3944 25.0223 16.9167 25.6667 16.9167Z" transform="matrix(1.01786 0 0 1 315 884)"/><path d="M18.6667 16.9167 21.5833 16.9167C22.2277 16.9167 22.75 16.3944 22.75 15.75 22.75 15.1056 22.2277 14.5833 21.5833 14.5833L18.6667 14.5833C18.0223 14.5833 17.5 15.1056 17.5 15.75 17.5 16.3944 18.0223 16.9167 18.6667 16.9167Z" transform="matrix(1.01786 0 0 1 315 884)"/><path d="M40.25 11.6667C40.8943 11.6667 41.4167 11.1444 41.4167 10.5L41.4167 8.16667C41.4167 7.52232 40.8943 7 40.25 7 39.6056 7 39.0833 7.52232 39.0833 8.16667L39.0833 10.5C39.0833 11.1444 39.6056 11.6667 40.25 11.6667Z" transform="matrix(1.01786 0 0 1 315 884)"/><path d="M40.25 5.25C40.8943 5.25 41.4167 4.72767 41.4167 4.08333L41.4167 2.33333C41.4167 1.689 40.8943 1.16667 40.25 1.16667 39.6056 1.16667 39.0833 1.689 39.0833 2.33333L39.0833 4.08333C39.0833 4.72767 39.6056 5.25 40.25 5.25Z" transform="matrix(1.01786 0 0 1 315 884)"/><path d="M48.125 9.04167C48.4339 9.04038 48.7297 8.9166 48.9475 8.6975L51.8642 5.78083C52.2833 5.29143 52.2263 4.55494 51.7369 4.13583 51.3001 3.76179 50.656 3.76179 50.2192 4.13583L47.3025 7.0525C46.8483 7.50948 46.8504 8.24816 47.3074 8.7024 47.5247 8.91852 47.8185 9.04038 48.125 9.04167Z" transform="matrix(1.01786 0 0 1 315 884)"/><path d="M50.3183 10.29C49.7191 10.5268 49.4253 11.2046 49.6621 11.8038 49.8385 12.2501 50.2701 12.5428 50.75 12.5417 50.8976 12.5406 51.0438 12.5129 51.1817 12.46L52.64 11.8767C53.2393 11.6383 53.5317 10.9593 53.2933 10.36 53.0549 9.76074 52.3759 9.46826 51.7767 9.70667Z" transform="matrix(1.01786 0 0 1 315 884)"/><path d="M49.8225 23.6775C49.3331 23.2584 48.5966 23.3154 48.1775 23.8048 47.8035 24.2415 47.8035 24.8857 48.1775 25.3225L52.8442 29.9892C53.3336 30.4083 54.07 30.3513 54.4892 29.8619 54.8632 29.4251 54.8632 28.781 54.4892 28.3442Z" transform="matrix(1.01786 0 0 1 315 884)"/><path d="M46.3225 20.1775 45.1558 19.0108C44.6664 18.5917 43.93 18.6487 43.5108 19.1381 43.1368 19.5749 43.1368 20.219 43.5108 20.6558L44.6775 21.8225C45.1669 22.2416 45.9034 22.1846 46.3225 21.6952 46.6965 21.2585 46.6965 20.6143 46.3225 20.1775Z" transform="matrix(1.01786 0 0 1 315 884)"/><path d="M35.5833 9.91667C35.5833 10.561 35.061 11.0833 34.4167 11.0833 33.7723 11.0833 33.25 10.561 33.25 9.91667 33.25 9.27233 33.7723 8.75 34.4167 8.75 35.061 8.75 35.5833 9.27233 35.5833 9.91667Z" transform="matrix(1.01786 0 0 1 315 884)"/><path d="M30.9692 8.11417C31.4586 8.53329 32.195 8.4763 32.6142 7.98688 32.9882 7.55014 32.9882 6.90597 32.6142 6.46917L28.2392 2.09417C27.7497 1.67506 27.0133 1.73204 26.5942 2.22143 26.2201 2.65821 26.2201 3.30239 26.5942 3.73917Z" transform="matrix(1.01786 0 0 1 315 884)"/><path d="M41.4167 23.3333C41.4167 23.9777 40.8943 24.5 40.25 24.5 39.6057 24.5 39.0833 23.9777 39.0833 23.3333 39.0833 22.689 39.6057 22.1667 40.25 22.1667 40.8943 22.1667 41.4167 22.689 41.4167 23.3333Z" transform="matrix(1.01786 0 0 1 315 884)"/><path d="M48.4167 32.6667C48.4167 33.311 47.8943 33.8333 47.25 33.8333 46.6057 33.8333 46.0833 33.311 46.0833 32.6667 46.0833 32.0223 46.6057 31.5 47.25 31.5 47.8943 31.5 48.4167 32.0223 48.4167 32.6667Z" transform="matrix(1.01786 0 0 1 315 884)"/><path d="M24.5 8.75C24.5 9.39433 23.9777 9.91667 23.3333 9.91667 22.689 9.91667 22.1667 9.39433 22.1667 8.75 22.1667 8.10567 22.689 7.58333 23.3333 7.58333 23.9777 7.58333 24.5 8.10567 24.5 8.75Z" transform="matrix(1.01786 0 0 1 315 884)"/><path d="M20.4167 7C20.4167 7.64433 19.8943 8.16667 19.25 8.16667 18.6057 8.16667 18.0833 7.64433 18.0833 7 18.0833 6.35567 18.6057 5.83333 19.25 5.83333 19.8943 5.83333 20.4167 6.35567 20.4167 7Z" transform="matrix(1.01786 0 0 1 315 884)"/><path d="M11.6667 28C11.6667 28.6443 11.1443 29.1667 10.5 29.1667 9.85567 29.1667 9.33333 28.6443 9.33333 28 9.33333 27.3557 9.85567 26.8333 10.5 26.8333 11.1443 26.8333 11.6667 27.3557 11.6667 28Z" transform="matrix(1.01786 0 0 1 315 884)"/></g></svg>